<?xml version="1.0" encoding="UTF-8"?>
<svg id="Layer_1" data-name="Layer 1" xmlns="http://www.w3.org/2000/svg" viewBox="0 0 725.64 194.68">
  <defs>
    <style>
      .cls-1 {
        fill: #fff;
      }
    </style>
  </defs>
  <path class="cls-1" d="m164.24,147.97c-8.4,0-.85-7.55-19.84-46.01-1.58-3.29-12.29-23.74-16.19-23.74-3.04,0-2.19,13.27-2.19,15.7,0,34.33,4.99,46.74,4.99,52.95,0,1.58-2.31,1.1-3.41,1.1h-11.32c-3.04,0-6.69,2.31-6.69-43.33,0-60.13,6.33-57.94,8.4-57.94h9.62c4.62,0,13.88,9.74,36.64,51.85.37.61.97,2.19,2.07,2.19,1.22,0,.97-5.23.97-6.94,0-22.76-6.21-42.97-6.21-45.77,0-1.7,2.68-1.34,4.99-1.34h9.25c2.68,0,8.4-2.19,8.4,57.94,0,45.65-3.65,43.33-6.69,43.33h-12.78Z"/>
  <path class="cls-1" d="m254.07,46.7c1.46,0,5.84-.37,5.84,2.07,0,.97-7.79,18.01-9.37,18.01-2.07,0-5.72-5.72-17.65-5.72-8.4,0-17.28,4.99-17.28,16.68,0,7.3.37,9.61,3.9,9.61,7.91,0,8.64-5.6,24.71-5.6,1.34,0,4.14,0,4.14,2.07,0,.61-4.75,19.6-6.82,19.6-1.22,0-4.5-1.7-9.25-1.7-10.71,0-16.07,6.21-16.07,16.19,0,10.59,4.87,27.63,4.75,28.97.12,1.46-2.92,1.1-4.02,1.1h-14.36c-3.04,0-6.69,2.31-6.69-43.33,0-60.13,6.33-57.94,8.4-57.94h49.78Z"/>
  <path class="cls-1" d="m288.88,147.97c-2.31,0-7.67,4.87-7.67-30.43,0-27.14,5.36-44.43,5.36-48.93,0-3.65.61-5.84-2.43-5.84-8.64,0-23.86,14-25.93,14-1.1,0-1.7.49-1.7-2.92,0-3.77,3.29-18.87,5.11-22.27,1.22-2.31,17.65-6.69,34.08-6.69,19.6,0,37,5.23,37,10.95,0,5.36-5.97,16.92-7.3,16.92-2.07,0-7.06-10.1-15.82-10.1-7.42,0-8.64,23.25-8.64,34.45,0,31.28,6.7,46.62,6.7,48.81,0,2.68-4.38,2.07-5.97,2.07h-12.78Z"/>
  <path class="cls-1" d="m376.04,44.88c-22.77,0-40.3,34.94-40.3,66.22,0,3.27.23,6.42.7,9.47,2.64,16.57,12.67,29.17,33.34,29.23h12.53c20.62-.07,30.68-12.65,33.29-29.19,0,0,.02,0,0-.02.5-3.04.72-6.22.72-9.49,0-31.29-17.54-66.22-40.28-66.22Zm0,81.51c-4.78,0-9.4-.63-13.79-1.83l2.77-25.45c-3.4-3.04-5.57-7.46-5.57-12.4,0-6.6,3.83-12.28,9.4-14.94.74-.36,1.53-.68,2.34-.92.43-.14.86-.25,1.31-.34.63-.14,1.26-.25,1.89-.29.54-.07,1.1-.09,1.65-.09s1.08.02,1.62.09c1.08.09,2.12.29,3.13.61.2.05.38.11.56.18.38.14.77.27,1.13.43,5.95,2.5,10.12,8.41,10.12,15.28,0,4.94-2.14,9.35-5.57,12.4l2.77,25.45c-4.4,1.19-9.02,1.83-13.77,1.83Z"/>
  <path class="cls-1" d="m471.21,46.7c19.96,0,24.1,14.48,24.1,21.67,0,32.62-47.59,37.37-47.59,52.7,0,10.22,4.26,25.08,4.26,25.8,0,1.46-2.8,1.1-3.65,1.1h-16.19c-3.04,0-6.69,2.31-6.69-43.33,0-60.13,6.33-57.94,8.4-57.94h37.37Zm4.38,25.56c0-8.4-7.3-11.2-14.61-11.2-8.77,0-15.95,1.34-15.82,29.34,0,2.92.24,5.6,3.77,5.6,6.33,0,26.66-14.97,26.66-23.74Z"/>
  <path class="cls-1" d="m509.55,147.97c-3.04,0-6.7,2.31-6.7-43.33,0-60.13,6.33-57.94,8.4-57.94h13.15c1.58,0,4.62-.37,4.62,1.95,0,1.22-6.45,21.54-6.45,45.04,0,31.16,6.09,51.24,6.09,52.95,0,1.22-.73,1.34-1.82,1.34h-17.28Z"/>
  <path class="cls-1" d="m593.54,147.97c-1.09,0-4.62.37-4.62-1.46,0-3.41,9.37-15.58,9.37-29.45,0-5.48-5.23-7.55-10.71-7.55-11.08,0-28.73,1.95-28.73,15.82,0,9.61,7.91,19.96,7.91,21.79,0,.73-.73.85-2.31.85h-17.41c-6.21,0-7.91-10.96-7.91-26.78,0-52.1,36.15-76.32,41.51-76.32,4.02,0,35.42,17.41,35.42,73.88,0,32.5-5.23,29.21-8.88,29.21h-13.63Zm-32.01-54.04c0,1.46.85,2.31,2.31,2.31,2.19,0,14-3.17,24.71-3.17,4.26,0,6.21-.61,6.21-4.02,0-7.55-9.01-23.37-13.63-23.37-6.57,0-19.6,19.36-19.6,28.24Z"/>
</svg>