<?xml version="1.0" encoding="UTF-8"?>
<svg id="Layer_1" width="128" height="128" data-name="Layer 1" xmlns="http://www.w3.org/2000/svg" viewBox="0 0 500 500">
  <defs>
    <style>
      .cls-1 {
        fill: #fff;
      }
    </style>
  </defs>
  <path class="cls-1" d="m251.22,147.9c-50.26,0-88.98,77.14-88.98,146.21,0,7.22.5,14.18,1.54,20.9,5.82,36.58,27.97,64.4,73.6,64.55h27.67c45.53-.15,67.73-27.92,73.5-64.45v-.05c1.09-6.72,1.59-13.74,1.59-20.95,0-69.07-38.72-146.21-88.93-146.21Zm44.89,190.65h-18.91c-12.44,0-1.24-11.15-29.31-68.03-2.34-4.83-18.21-35.08-23.94-35.08-4.53,0-3.23,19.61-3.23,23.24,0,50.71,7.37,69.07,7.37,78.23,0,2.34-3.43,1.64-5.03,1.64h-16.77c-4.48,0-9.85,3.38-9.85-64.05,0-88.88,9.36-85.65,12.39-85.65h14.23c6.82,0,20.5,14.38,54.14,76.64.55.9,1.44,3.23,3.04,3.23,1.84,0,1.44-7.71,1.44-10.25,0-33.64-9.16-63.5-9.16-67.63,0-2.54,3.93-1.99,7.37-1.99h13.69c3.93,0,12.39-3.23,12.39,85.65,0,67.43-5.37,64.05-9.85,64.05Z"/>
</svg>